<?xml version="1.0" encoding="UTF-8" standalone="no"?>
<!-- Created with Inkscape (http://www.inkscape.org/) -->

<svg
   xmlns:dc="http://purl.org/dc/elements/1.1/"
   xmlns:cc="http://creativecommons.org/ns#"
   xmlns:rdf="http://www.w3.org/1999/02/22-rdf-syntax-ns#"
   xmlns:svg="http://www.w3.org/2000/svg"
   xmlns="http://www.w3.org/2000/svg"
   xmlns:sodipodi="http://sodipodi.sourceforge.net/DTD/sodipodi-0.dtd"
   xmlns:inkscape="http://www.inkscape.org/namespaces/inkscape"
   width="167.23869mm"
   height="165.53596mm"
   viewBox="0 0 167.23869 165.53596"
   version="1.1"
   id="svg8378"
   inkscape:version="0.92.4 (5da689c313, 2019-01-14)"
   sodipodi:docname="Corner flourish.svg">
  <title
     id="title8388">Corner flourish</title>
  <defs
     id="defs8372" />
  <sodipodi:namedview
     id="base"
     pagecolor="#ffffff"
     bordercolor="#666666"
     borderopacity="1.0"
     inkscape:pageopacity="0.0"
     inkscape:pageshadow="2"
     inkscape:zoom="1.3305209"
     inkscape:cx="316.04163"
     inkscape:cy="312.82387"
     inkscape:document-units="mm"
     inkscape:current-layer="layer1"
     showgrid="false"
     fit-margin-top="5"
     fit-margin-right="5"
     fit-margin-bottom="5"
     fit-margin-left="5"
     inkscape:window-width="944"
     inkscape:window-height="1041"
     inkscape:window-x="0"
     inkscape:window-y="0"
     inkscape:window-maximized="0" />
  <metadata
     id="metadata8375">
    <rdf:RDF>
      <cc:Work
         rdf:about="">
        <dc:format>image/svg+xml</dc:format>
        <dc:type
           rdf:resource="http://purl.org/dc/dcmitype/StillImage" />
        <dc:title>Corner flourish</dc:title>
        <dc:date>2018-09-30</dc:date>
        <dc:creator>
          <cc:Agent>
            <dc:title>m1981</dc:title>
          </cc:Agent>
        </dc:creator>
        <dc:rights>
          <cc:Agent>
            <dc:title>Public domain</dc:title>
          </cc:Agent>
        </dc:rights>
        <dc:publisher>
          <cc:Agent>
            <dc:title>Inkscape</dc:title>
          </cc:Agent>
        </dc:publisher>
        <dc:subject>
          <rdf:Bag>
            <rdf:li>corner</rdf:li>
            <rdf:li>flourish</rdf:li>
            <rdf:li>floral</rdf:li>
            <rdf:li>carving</rdf:li>
            <rdf:li>print</rdf:li>
            <rdf:li></rdf:li>
          </rdf:Bag>
        </dc:subject>
        <dc:description>A flourish for corners.</dc:description>
        <cc:license
           rdf:resource="http://creativecommons.org/publicdomain/zero/1.0/" />
      </cc:Work>
      <cc:License
         rdf:about="http://creativecommons.org/publicdomain/zero/1.0/">
        <cc:permits
           rdf:resource="http://creativecommons.org/ns#Reproduction" />
        <cc:permits
           rdf:resource="http://creativecommons.org/ns#Distribution" />
        <cc:permits
           rdf:resource="http://creativecommons.org/ns#DerivativeWorks" />
      </cc:License>
    </rdf:RDF>
  </metadata>
  <g
     inkscape:label="Calque 1"
     inkscape:groupmode="layer"
     id="layer1"
     transform="translate(-23.185306,-95.25832)">
    <path
       style="color:#000000;font-style:normal;font-variant:normal;font-weight:normal;font-stretch:normal;font-size:medium;line-height:normal;font-family:sans-serif;font-variant-ligatures:normal;font-variant-position:normal;font-variant-caps:normal;font-variant-numeric:normal;font-variant-alternates:normal;font-feature-settings:normal;text-indent:0;text-align:start;text-decoration:none;text-decoration-line:none;text-decoration-style:solid;text-decoration-color:#000000;letter-spacing:normal;word-spacing:normal;text-transform:none;writing-mode:lr-tb;direction:ltr;text-orientation:mixed;dominant-baseline:auto;baseline-shift:baseline;text-anchor:start;white-space:normal;shape-padding:0;clip-rule:nonzero;display:inline;overflow:visible;visibility:visible;opacity:1;isolation:auto;mix-blend-mode:normal;color-interpolation:sRGB;color-interpolation-filters:linearRGB;solid-color:#000000;solid-opacity:1;vector-effect:none;fill:#000000;fill-opacity:1;fill-rule:nonzero;stroke:none;stroke-width:0.09999993;stroke-linecap:round;stroke-linejoin:miter;stroke-miterlimit:4;stroke-dasharray:none;stroke-dashoffset:0;stroke-opacity:1;marker:none;paint-order:markers fill stroke;color-rendering:auto;image-rendering:auto;shape-rendering:auto;text-rendering:auto;enable-background:new"
       d="m 35.771017,235.48455 c 0.109459,2.46551 0.766198,4.77971 1.910022,6.75951 1.737627,3.01033 4.364046,5.45396 7.62203,6.81588 5.354631,2.23838 12.133291,1.74858 18.114569,-2.84232 0.697784,-0.53634 3.534359,-2.68169 9.940865,-4.48281 6.405703,-1.80056 16.356965,-3.19751 30.897777,-1.98117 1.65825,0.13686 11.55262,1.37094 22.44167,5.88276 l 3.74724,1.49956 c -2.53666,-4.86645 -6.14709,-7.13822 -10.80366,-9.78545 9.01295,0.92492 16.19278,0.85377 21.98824,1.19035 6.8739,0.39678 11.8063,0.0547 14.58814,0.5856 10.56396,2.01126 16.31263,5.26924 19.37031,7.89593 1.52966,1.31348 4.50114,4.65602 4.6054,8.77189 5.79191,-9.9822 3.00404,-17.93699 -4.69323,-22.77196 7.00824,-3.49851 10.09876,-11.35808 9.91596,-15.64193 -5.58366,-2.70907 -12.29145,-2.8664 -17.16421,0.13686 0.42141,-9.66012 -8.67965,-12.32704 -16.41305,-14.57938 0.85924,2.17818 1.93739,4.62674 2.18639,5.44903 0.49804,1.64459 1.02617,3.85507 1.14384,6.10387 0.10943,2.24934 -0.21892,4.51317 -1.24234,6.30088 -1.02616,1.78689 -2.73369,3.19669 -5.9312,3.92622 -9.45242,2.1563 -17.11631,2.0742 -23.8564,0.82366 -5.4359,-1.007 -11.30443,-2.65159 -17.57712,-3.84632 3.89529,-1.52966 7.91153,-3.16001 10.19562,-4.49676 3.1811,-1.86076 5.12889,-2.95752 5.93913,-2.94138 0.88388,0.0152 2.64887,0.77989 4.38375,1.93739 1.73764,1.15751 3.51959,2.64065 4.96332,3.88873 l 1.4421,1.28611 c 2.1481,-3.19914 1.69384,-6.95106 0.27365,-8.1734 2.92168,-0.50351 4.13391,-3.00104 5.82611,-4.92091 -1.69658,-1.75405 -3.76942,-3.95633 -6.13697,-3.84633 2.8924,-3.29602 1.65279,-5.1327 0.58011,-8.76721 l -1.38462,1.40104 c 0,0 -5.39705,5.35627 -13.25003,9.77122 -1.00974,0.56644 -2.44909,1.25055 -3.8039,1.9237 0.0217,-1.35726 -0.47614,-5.49856 -1.78141,-6.12302 0,0 -2.22745,6.93492 -8.62575,10.56314 -3.37592,1.19308 -6.71463,2.1262 -8.979567,2.19187 -5.560417,0.16419 -16.067448,1.54609 -22.667697,2.40259 0.722413,-1.49683 1.502299,-3.00487 2.035894,-4.44012 0.407721,-1.09183 0.747042,-2.06601 1.017947,-2.8281 0.191546,-0.50624 0.246276,-0.64853 0.311948,-0.86197 0.481609,-0.13687 2.15904,-0.65675 4.807903,-1.76772 2.65432,-1.11099 5.672059,-2.74573 8.031936,-4.77971 0.779886,0.44329 1.737632,0.69778 2.757504,0.56643 1.132878,-0.13686 2.284913,-0.66768 3.535177,-1.59807 6.683445,-4.96824 12.155185,-8.85724 21.423455,-11.34083 1.57891,-0.42415 2.39163,-1.8717 2.82808,-3.30915 0.0547,-0.19154 0.0547,-0.39952 0.10943,-0.59381 5.04104,-0.71147 9.64042,-0.42688 13.32063,-0.27363 1.96475,0.0821 3.68761,0.16417 5.17567,-0.10943 1.48862,-0.24628 2.91319,-0.96049 3.59155,-2.36153 1.46398,-3.02485 1.98118,-7.3109 1.75404,-11.00152 -0.10943,-1.84435 -0.39678,-3.55296 -1.00426,-4.9209 -0.30375,-0.68411 -0.66768,-1.2779 -1.23139,-1.76773 -0.56097,-0.48982 -1.38188,-0.84556 -2.19187,-0.80724 -0.16419,0.008 -1.5324,-0.0152 -2.99802,-0.0547 -0.46247,-0.006 -1.00153,0.10943 -1.49957,0.10943 0.74431,-0.94133 2.25481,-1.66648 2.34786,-2.67349 0.19154,-2.07421 -0.59107,-3.76558 -1.5406,-4.80816 -3.54778,-3.89009 -5.54017,-6.41254 -7.32514,-8.11678 -1.78414,-1.70479 -3.59265,-2.56129 -6.03791,-2.67348 -1.12741,-0.0547 -1.84161,0.74977 -2.61602,1.38463 0.19154,-0.85103 0.4515,-1.75405 0.4816,-2.34785 0.0274,-0.80725 -0.31742,-1.63091 -0.8045,-2.19188 -0.48982,-0.56097 -1.07267,-0.92764 -1.75404,-1.23139 -1.36821,-0.60749 -3.07629,-0.90575 -4.92091,-1.01795 -3.69008,-0.2189 -7.93425,0.30101 -10.95937,1.76773 -1.42569,0.68959 -2.15083,2.17273 -2.402576,3.6909 -0.246291,1.51871 -0.191561,3.27823 -0.109429,5.28867 0.191546,3.78256 0.508965,8.50151 -0.298277,13.67417 -0.385836,0.0821 -0.848287,0.0547 -1.201294,0.16419 -0.700512,0.21892 -1.357253,0.48435 -1.923692,0.90576 -0.566439,0.42141 -1.078163,1.09731 -1.187607,1.92371 -0.809987,6.16104 -2.265756,9.56215 -4.11503,12.34481 -1.847091,2.78294 -4.221488,4.99124 -6.787704,8.44213 -0.930388,1.25055 -1.450297,2.40259 -1.598072,3.53519 -0.136862,1.13288 0.136862,2.23019 0.692313,3.04017 0.287334,0.42688 0.692328,0.65947 1.061734,0.94679 -1.923707,1.4038 -3.700731,2.69538 -5.500746,3.18191 0.295534,-1.50777 0.528123,-4.00995 -2.334172,-7.28271 -1.362739,-1.55428 -3.565293,-2.05778 -5.727061,-2.16451 0.05471,-0.63758 0.08215,-0.9249 0.109429,-1.42841 0.08215,-2.25754 0.629383,-5.72706 2.191868,-8.92265 3.270851,-6.69493 9.615791,-7.97558 9.615791,-7.97558 -0.541809,-1.31621 -3.745881,-2.51476 -5.132976,-2.49013 0.667683,-1.34085 1.359996,-2.80238 1.923706,-3.8039 4.414944,-7.85298 9.785437,-13.25003 9.785437,-13.25003 l 1.38464,-1.38464 c -3.756567,-2.19187 -6.489154,-1.44483 -8.597844,0.24628 -0.01516,-2.97558 -1.349053,-4.24036 -4.072349,-5.81161 -4.622359,2.90936 -4.500047,5.31304 -3.379749,8.01772 -1.847092,-2.42447 -5.252288,-3.04948 -9.658199,-1.92371 l 1.286109,1.48587 c 1.247809,1.44485 2.746546,3.24075 3.902962,4.97757 1.157507,1.73761 1.907292,3.44158 1.923707,4.3271 0.01516,0.81271 -1.13835,2.80018 -2.997748,5.98153 -1.332639,2.27944 -2.899246,6.26887 -4.42616,10.15322 -1.193078,-6.27269 -2.838226,-12.14122 -3.846322,-17.57713 -1.250537,-6.74008 -1.499556,-14.42395 -0.136862,-24.02276 0.462451,-3.24732 1.775932,-5.08236 3.471703,-6.25301 1.696573,-1.17119 3.856977,-1.67468 6.106318,-1.74857 2.25207,-0.0547 4.50661,0.30922 6.188694,0.67043 0.840087,0.19154 3.152358,0.65399 5.888234,1.88539 -1.565229,-6.50831 -6.850087,-12.08596 -9.562971,-13.8337 -2.120725,-1.36549 -4.34571,-1.40926 -6.568512,-1.52146 2.42173,-6.27791 0.779886,-12.43923 -1.450298,-16.97375 -7.539945,1.19855 -11.3422,5.30483 -14.587871,11.05678 -4.700352,-5.1409 -9.463368,-7.59466 -12.980217,-7.14233 -4.337776,0.55824 -7.265747,2.46004 -8.946731,5.12148 11.037631,1.28886 14.222827,9.41685 17.397349,21.74607 0.705997,2.74081 0.872919,7.66117 1.844348,14.47787 0.818191,5.76072 0.585595,12.0471 1.518715,21.08905 -2.849983,-6.39282 -4.844287,-7.3336 -9.82786,-10.80338 l 1.540605,3.6906 c 4.510446,10.8896 5.686559,20.83677 5.825843,22.49804 1.217708,14.54081 -0.136816,24.43652 -1.923704,30.84139 -1.800566,6.40487 -3.997913,9.2357 -4.539177,9.94088 -3.101734,4.04252 -4.42753,8.56226 -4.242275,12.67018 z m 3.747256,-6.34905 c 0.632114,-1.52144 1.734891,-2.8965 2.673484,-4.66669 9.648076,-18.20733 8.895286,-49.10181 -1.231389,-66.08022 15.796547,19.95947 11.111788,60.15832 1.981169,73.13663 -2.97066,4.22202 -3.643546,-1.85529 -3.42217,-2.3889 z m 0.692315,5.57136 c 1.015212,0.2189 2.189138,0.0547 3.209822,-0.77714 8.075455,-6.51188 12.683857,-35.82278 8.10282,-60.39557 -1.641853,-11.15175 -0.443301,-21.73103 -1.387367,-28.3548 -0.946802,-6.65006 -0.990584,-11.41281 -1.948331,-14.83033 -2.897872,-10.40195 -6.676323,-16.22615 -9.901196,-19.5145 1.41473,0.46792 2.739706,1.01794 3.89475,1.74308 2.817146,1.76774 4.876029,4.31863 6.122196,8.35321 2.580446,8.35622 0.618432,13.99105 2.558554,22.80698 6.868421,31.20671 6.206209,35.88161 6.078683,55.83039 -0.109429,0.80452 0.768943,-9.02388 0.892074,-9.99751 0.591068,-12.68249 0.421407,-16.58929 -5.044863,-44.82424 -1.661009,-8.57977 -0.470664,-20.15483 -2.0961,-24.19599 -4.164012,-10.33847 -13.811816,-15.68434 -21.010521,-11.73322 0.500767,-0.21892 1.808776,-1.86076 5.726784,-2.53941 4.920087,-0.85375 9.663402,1.79237 13.937144,6.15122 5.310028,5.41509 6.947502,13.03247 8.048915,19.4658 0.298262,-2.09883 -0.593811,-7.58371 -1.11372,-9.59908 0.413193,-0.2764 1.100034,-0.64307 1.937378,-1.03985 1.671959,-0.7963 3.921574,-1.57345 6.024777,-1.66648 2.820707,-0.009 4.841551,0.10943 6.948877,1.46672 0.848287,0.54455 1.789618,1.78142 2.776646,3.24238 -4.582967,-3.25142 -13.705918,-1.32989 -15.693373,2.62424 3.517657,-3.22761 9.680357,-2.66802 12.06844,-1.61723 1.22318,0.53634 2.51476,1.34632 3.922923,2.36427 -8.74095,-1.34905 -16.619382,2.79415 -17.09852,12.53554 -0.566439,11.50666 1.297051,17.58262 2.602333,24.63601 1.291595,6.95735 3.343085,11.99128 3.3513,18.39724 0.0061,4.61224 -1.031633,6.52446 -1.485885,8.01799 3.540104,-2.48467 3.531358,-5.14173 3.818132,-6.74528 2.279442,-12.74515 10.33684,-19.38672 8.328849,-23.38902 -0.662212,-1.32169 -2.079682,-5.20795 -4.284691,-6.75924 3.228701,0 6.425664,4.55834 7.12701,13.2358 0,0 0.424151,-3.77981 0.273648,-6.0806 2.3369,-5.63948 7.405568,-8.17587 9.035939,-7.96108 -5.137918,6.75706 -7.50601,10.07359 -10.520733,17.37902 -4.771224,1.2396 -7.293653,6.8033 -9.163449,11.59532 1.247809,-2.98133 4.022819,-8.44076 8.286426,-9.54492 1.710275,-0.44329 3.895854,-0.3612 5.105074,-0.58011 -2.04958,1.05352 -6.972672,3.62274 -9.092578,8.06013 -2.120724,4.43737 -2.325957,6.56166 -2.419002,9.48854 -0.01516,0.34752 -0.08215,1.10552 -0.136862,1.78142 -5.762633,1.40378 -9.432171,5.29551 -9.488553,10.02596 -0.05471,4.53426 2.432688,8.95658 9.035939,9.10654 -2.583176,9.03732 -9.199567,18.03412 -14.3528,25.83538 4.780795,-3.42874 4.959762,-4.16865 5.797651,-5.17566 1.655546,-1.98938 4.011057,-5.79793 7.423923,-13.0801 1.086348,-2.31775 2.139882,-4.93897 3.210088,-7.55116 1.912764,-0.0547 3.383584,-0.38857 4.015983,-0.50898 -0.273648,0.74432 -0.27912,1.02891 -0.651269,2.02223 -0.788101,2.11525 -1.784147,4.55915 -3.139232,7.12673 -1.357268,2.56676 -2.536661,5.62308 -4.765481,9.85633 -2.123452,4.03347 -5.535772,13.41147 -13.080365,16.95486 1.286118,-1.77594 -2.402579,-1.27243 -4.708835,-1.16025 2.547608,-1.03436 5.816538,-3.50097 8.951113,-8.80991 -7.365631,6.72176 -8.90569,6.23768 -11.072388,6.47657 -0.109459,-0.36667 -0.136816,-0.58012 -0.281851,-1.06173 -0.109459,-0.36942 -0.544548,-0.61295 -1.01795,-0.86197 2.998025,-0.59107 5.38993,-3.31464 7.537201,-7.32486 2.328696,-4.352 6.191422,-19.26769 5.09057,-26.93843 -0.892077,8.42653 -6.043391,31.5389 -13.589348,31.70391 -0.358473,0.008 -0.623905,-0.0547 -0.905757,-0.0821 0.191551,-1.8033 -0.834608,-2.22471 -1.78141,-3.5776 z m 7.975301,14.25402 c 8.677742,-1.95654 16.021472,-12.5071 17.209352,-14.6218 1.507771,-2.68442 13.852875,-7.97256 19.245814,-9.41767 -8.470879,0.16419 -15.098759,2.76761 -16.672202,4.36952 1.882664,-3.89967 3.789941,-8.07436 3.789941,-8.07436 0.05472,-0.16419 0.109429,-0.33385 0.109429,-0.50898 6.243969,-0.82091 18.766933,-2.0961 24.421198,-2.57496 8.466479,-0.71694 12.244389,-1.90455 16.671929,-9.57338 0,7.20965 -5.99878,9.7953 -12.31664,12.4157 -9.304116,1.47492 -19.231567,2.88472 -19.231567,2.88472 2.148082,0.0822 2.824525,0.67317 5.189889,0.52267 3.503713,-0.21892 9.095048,-1.20951 15.540688,-0.8483 7.92851,0.97143 14.45105,3.39372 21.46586,4.69461 7.05341,1.30801 15.06702,1.47767 25.02184,-0.79356 3.78858,-0.86471 6.26887,-2.82289 7.6628,-5.25283 1.78962,-3.05906 1.76774,-8.79404 0.61845,-12.15874 4.84647,5.22328 1.87717,12.0999 1.22317,16.10027 5.24819,-8.67664 4.43793,-15.08123 -2.14535,-20.38771 4.37827,1.08637 10.66575,3.78885 10.09931,13.75025 -0.21892,4.03266 -2.92031,7.29749 -3.55544,8.34636 -9.81007,-3.02621 -19.90965,1.60901 -19.90965,1.60901 23.64159,-1.02341 38.01217,3.08231 37.83404,18.00457 -2.14535,-5.61049 -4.85633,-9.20669 -8.21857,-11.56631 -3.99354,-2.80264 -20.09957,-4.73948 -20.4865,-3.43695 8.46732,0.28732 15.45011,3.23501 18.91716,5.66741 1.9155,1.34358 3.57295,3.1488 5.06375,5.65126 -3.68323,-2.67896 -9.48307,-5.48927 -18.98393,-7.29941 -3.48374,-0.66496 -8.20298,-0.24628 -14.90885,-0.64033 -6.57944,-0.38036 -19.87627,-0.96321 -25.40192,-1.72394 -3.44817,-0.47614 -9.81501,-2.06325 -19.797204,-1.83888 -1.472184,0.0274 -17.948732,0.91945 -19.033443,0.9468 28.275447,-9.43326 34.302407,-0.3612 70.407587,-0.46792 -14.3758,-1.36274 -30.10585,-2.2986 -39.96244,-3.944 -5.47339,-0.91123 -15.013645,0.30375 -23.4172,1.65553 -8.403554,1.34905 -15.470089,4.24228 -21.918199,10.06839 7.573879,-5.81161 45.120329,-9.50441 58.274299,0.80724 -11.70177,-4.84702 -42.751117,-7.88856 -58.741131,3.6482 -4.464202,3.42546 -8.539549,4.77807 -14.055902,3.98779 z m 12.401464,-47.3152 c 0,-5.1453 3.349922,-6.50611 8.739041,-7.52297 h 0.01516 c 2.211026,-0.13686 4.2866,0.42961 5.076611,1.3299 2.276698,2.60233 1.866234,5.45861 1.625429,6.37751 -0.976903,0.5035 -2.139882,0.92765 -3.789941,1.13014 0.246276,-1.81425 0.164189,-3.29 -0.218918,-4.31287 -0.366678,-0.99333 -2.030423,-1.22867 -3.294646,-1.04532 -2.421745,0.35026 -4.953207,1.92096 -4.482814,4.36952 0.191546,1.03436 1.633644,3.18219 2.870783,3.49277 8.520395,2.13988 13.513827,-3.31929 19.599078,-6.26449 0.136862,0.0547 0.246276,0.10943 0.366678,0.16419 0.02182,0.0547 0.08215,0.10943 0.109429,0.19154 0.191546,0.51171 0.37215,1.03437 0.637583,1.5406 -5.988114,5.10617 -12.551428,8.31873 -20.673665,8.07463 -3.434766,-0.10942 -6.561389,-3.69827 -6.561389,-7.50901 z m -9.019794,-88.79935 c 0.695052,-2.12894 2.706321,-4.36323 4.78847,-6.29952 0.372149,-0.34479 0.818186,-0.53087 1.217708,-0.82366 0.826401,1.57892 1.023419,2.79608 1.075405,3.32967 -2.128939,1.79784 -3.801707,4.21328 -5.404429,6.45824 -0.664951,-1.30528 -1.127406,-1.90729 -1.677426,-2.66255 z m 2.24113,3.65777 c 2.651585,-4.0198 6.44865,-5.8439 10.786978,-8.23854 0.08215,0.67589 0.246276,1.25875 0.273633,1.94559 0.05472,1.75132 -0.08215,3.49195 -0.374877,4.78382 -0.273649,1.23138 -0.716942,1.8416 -0.829145,1.93738 -2.470988,0.19156 -4.851674,0.96049 -6.644309,1.81152 -0.678626,0.31469 -1.162974,0.64305 -1.663739,0.96869 -0.218914,-0.54729 -1.283382,-2.63791 -1.540605,-3.20982 z m 12.973375,84.68898 c 0.164189,-0.74157 1.048048,-1.37642 2.093367,-1.51324 1.48587,-0.19156 1.5707,2.90307 1.23138,3.56364 -1.201279,0.0821 -2.596862,-0.022 -3.224321,-1.28612 -0.136862,-0.24628 -0.164189,-0.51718 -0.109429,-0.76346 z m 8.710577,-47.73962 c 0.109429,-0.61844 0.295534,-1.12467 0.566439,-1.57071 0.273648,1.37915 0.777143,2.60235 0.777143,2.60235 0,0 1.072677,-2.12074 2.150825,-3.0544 0.380364,-0.32837 0.290062,-0.24628 0.508981,-0.43783 0.615697,0.87018 0.971432,1.78962 0.777143,2.87079 -1.920964,1.27242 -3.041535,5.12941 -3.520946,5.47228 -0.339321,-1.52419 -0.807258,-2.65159 -1.21498,-3.60578 l -0.01516,-0.0152 c -0.136862,-0.88661 -0.136862,-1.6309 -0.02743,-2.26302 z m 12.726833,37.04923 c -0.02183,-0.44056 0.109429,-0.88933 0.424135,-1.31621 1.30801,-1.70206 3.018285,-3.6348 4.539454,-5.92518 1.833405,-2.75995 3.280156,-6.24888 4.185628,-11.49653 1.048048,-0.94132 3.658319,-0.0273 3.421899,1.98118 -0.41047,3.48866 -4.653551,9.15114 -4.185628,11.04391 3.584978,-5.8335 4.994798,-7.36781 6.123018,-9.68637 1.11645,-2.43269 5.3768,-3.48977 5.52921,-1.45579 -1.30801,2.33417 -3.1603,5.11028 -4.80816,7.21184 -2.33964,2.98708 -4.873028,6.19664 -8.031949,9.82786 3.640529,-3.128 7.403929,-5.17976 9.926919,-7.84806 2.34512,-2.47918 4.44176,-3.26098 6.83011,-4.4828 2.31775,-1.1876 3.87668,2.71727 -0.36669,5.03419 -4.64508,2.53393 -9.7214,5.87237 -10.76125,8.03195 1.81425,-0.21892 8.50782,-5.49802 11.29842,-6.15119 2.79059,-0.65402 4.50716,2.28764 3.37975,3.15344 -8.15919,2.35606 -13.98038,6.55948 -19.373051,10.08235 -2.470988,1.61449 -4.983292,-1.47767 -4.383464,-3.11076 0.71967,-1.96475 1.384625,-2.94139 1.384625,-2.94139 0,0 -1.450312,0.58013 -2.95534,0.58013 -0.771671,0 -2.109781,-1.20951 -2.178182,-2.53119 z m 13.122506,30.36033 c 9.51727,-3.94208 11.56713,-5.28294 13.43392,-8.61179 1.73489,-0.82093 3.15647,-1.58439 4.53917,-2.33417 1.74857,-0.10943 8.77599,0.24627 11.49653,3.09681 1.18213,1.23961 1.40379,2.61876 1.11646,3.56337 -1.10278,-0.90575 -2.13167,-1.84982 -3.36552,-2.67348 -1.91276,-1.27518 -3.83592,-2.31229 -5.82612,-2.34786 -2.39163,-0.0547 -4.27922,1.49409 -7.3815,3.30917 -3.06644,1.79509 -7.24521,4.03621 -13.3915,5.91094 h -0.0152 c -0.29279,0.0547 -0.31469,0.0274 -0.60748,0.0821 z m 0.62117,-54.82421 c 0.6759,-5.11683 0.62391,-9.96578 0.46792,-13.44786 -0.0547,-1.0809 0.0217,-1.72944 0.0274,-2.57498 0.65127,-0.70874 1.50777,-1.32717 2.77145,-1.25875 1.3299,0.0822 2.37247,0.0547 3.15345,0.56644 0.42962,0.27363 -2.03589,12.09032 -1.45577,13.09431 1.18214,-0.31742 2.90908,-12.48574 3.16768,-12.81137 1.38188,-1.74036 3.8972,-2.34512 5.89671,-1.16024 2.10431,1.24507 0.86197,3.073 0.21892,4.29864 -3.83017,7.41214 -6.45084,12.69508 -6.88675,13.5472 -0.0152,-0.005 -0.0274,-0.005 -0.0547,-0.0152 -0.0821,-0.022 -0.16419,-0.0547 -0.27365,-0.0822 -0.0821,-0.0151 -0.19154,-0.0151 -0.28457,-0.0273 -0.3448,-0.0547 -0.66223,-0.13686 -1.06174,-0.19154 -1.37642,-0.13687 -3.06725,-0.19157 -4.75125,-0.10943 -0.33659,0.0152 -0.61569,0.10943 -0.9468,0.13686 z m 7.3815,10.84608 c 0.44329,-0.67043 0.87838,-1.21771 1.25875,-1.8936 v -0.0152 c 0.37215,-0.66768 0.73884,-1.32168 1.01795,-1.98117 v -0.0136 c 0.28184,-0.66221 0.49256,-1.32168 0.59381,-2.00853 0.13686,-1.00974 -0.13687,-2.04137 -0.65127,-2.96983 0.27363,-0.51993 3.19176,-6.29131 7.01371,-13.82961 0.68412,-0.87018 1.40653,-1.86624 2.12073,-2.65707 1.21223,0.48983 2.79033,1.20403 3.56337,2.1481 0.9769,1.19034 2.17546,3.42163 1.13015,5.52921 -0.21892,0.44604 -3.00404,2.86284 -6.26422,7.48029 2.71179,-1.68837 7.19733,-6.20731 7.59357,-6.33509 3.2859,-1.05901 4.30575,1.34084 5.79765,2.33416 0.77715,0.51719 1.25328,1.25055 1.52693,1.9237 -0.46519,0.48161 -1.13288,0.94408 -2.21924,1.35727 -7.13221,1.87992 -12.13275,6.25026 -12.13275,6.25026 -0.35573,0.29828 -0.53633,0.75526 -0.48161,1.21498 v 0.0152 c 0.13687,1.11646 1.46946,1.61176 2.29039,0.8483 0,0 4.6199,-4.04416 11.11453,-5.71283 h 0.0152 c 1.11098,-0.19155 2.51751,-0.24628 3.8039,-0.24628 1.51325,1.47493 2.93263,3.94181 2.84232,5.45834 -0.0821,1.38737 -1.49135,2.14261 -2.60234,2.53119 -0.72789,0.24628 -13.73219,0.4351 -11.89249,2.47373 0,0 11.1293,-1.8033 11.80767,-1.28612 1.07268,0.81546 2.42173,2.12894 2.21923,3.49277 -0.16418,1.04805 -0.82366,2.03864 -1.86624,2.79991 -0.9468,0.0547 -1.82519,0.10943 -3.13922,0.0822 -3.38632,-0.13686 -8.05521,-0.24628 -13.05192,0.35299 0.0217,-0.49255 0.0547,-0.99057 0.0547,-1.48587 -0.0152,-1.03985 -0.16419,-1.93192 -0.27364,-2.87051 -0.008,-0.0821 0.008,-0.19155 0,-0.28459 -0.0151,-0.10943 -0.0547,-0.19155 -0.0547,-0.31195 -0.0547,-0.32016 -0.0274,-0.72241 -0.10943,-1.01795 -0.0821,-0.44331 -0.21892,-0.80177 -0.32563,-1.17392 -0.0547,-0.19156 -0.10943,-0.35848 -0.16419,-0.53634 -0.0218,-0.0821 -0.0547,-0.13686 -0.0821,-0.21891 -0.0274,-0.0821 -0.0547,-0.19155 -0.0821,-0.27365 -0.005,-0.008 -0.0218,-0.0152 -0.0274,-0.0273 -0.10943,-0.28185 -0.24628,-0.55823 -0.62117,-0.87566 -1.23686,-1.03711 -2.84999,-1.21771 -4.27046,-0.91943 -1.42021,0.29826 -2.79471,0.955 -4.11475,1.76771 -0.52814,0.32291 -0.85925,0.54183 -1.37096,0.89208 z m 3.74753,-3.67666 c 1.19855,-0.19155 2.68442,-1.32168 3.36524,-2.36153 0.67865,-1.03983 0.87292,-2.56129 0.79083,-2.36153 -0.0821,0.19155 -1.95928,0.83735 -2.79964,2.0359 -0.84007,1.19855 -1.35725,2.68716 -1.35725,2.68716 z m 6.43388,36.59664 c 0.35299,-0.19154 0.85101,-0.42688 1.17392,-0.60748 7.1002,-3.99163 10.25748,-7.26219 12.91071,-11.12903 0.29826,2.06873 -1.01248,4.97071 -1.86623,6.01 -2.34239,2.84862 -6.11564,5.40936 -7.67869,5.35929 -1.71573,-0.005 -2.87133,0.0822 -4.53917,0.36668 z m 7.26848,-0.21892 c 1.27516,-0.29553 2.29311,-1.23959 5.16144,-3.33734 1.23686,0.0821 1.78414,0.47341 2.21924,0.77714 -0.9085,0.67317 -2.36155,1.63912 -2.36155,1.63912 0,0 1.27519,0.66223 2.38891,1.51324 -0.65949,0.61023 -1.2916,0.99881 -2.19187,1.06174 -2.118,-1.32168 -2.88967,-1.57345 -5.2181,-1.65553 z m 38.40814,18.68265 c 0.13687,-0.9167 2.66254,-4.40345 3.57377,-8.28561 0.0821,-0.10943 0.7142,-0.66495 1.94286,-1.04804 1.26423,-0.39678 2.97339,-0.63212 4.72608,-0.71695 0.64852,-0.0274 1.19855,0.0822 1.83339,0.10943 -0.50077,4.16485 -2.23291,7.93673 -8.34089,10.93229 -0.72515,-0.19154 -3.06042,-0.7361 -3.73521,-0.97965 z m 5.97525,1.97569 c 0.57465,-0.31467 1.04258,-0.45698 1.68016,-0.93311 1.47494,-1.10551 3.06015,-2.76543 4.52604,-5.02544 1.69659,-0.37763 2.92798,-0.45698 3.80473,-0.4433 -0.39132,0.85376 -0.76347,1.71848 -1.37095,2.49288 -1.74858,2.22471 -4.11092,3.9648 -6.17392,4.84593 -0.74978,-0.35574 -1.62543,-0.62937 -2.46551,-0.93585 z"
       id="path10763-9"
       inkscape:connector-curvature="0"
       sodipodi:nodetypes="ccccccccccccccccccccccccccccccccccccccccccccccccccccccccccccccccccccccccccccccccccccccccccccccccccccccccccccccccccccccccccccccccccccccccccccccccccccccccccccccccccccccccccccccsccccccccccccccccccccccccccccccccccccccccccccccccccsccccccccccccccscccccccccccccccccccccccccccccccccccccccscccccccccccccsccccccccccccccccccccccccccccccccccccccccccccccccccccccccccccccccccccccccccccscccccccccccsccccccccccccccccccccccccccccc" />
  </g>
</svg>
